{
  "accessors": [
    {
      "bufferView": 2,
      "componentType": 5126,
      "count": 65532,
      "max": [
        10.150628089904785,
        9.4372043609619141,
        4.1320919990539551
      ],
      "min": [
        -9.5436010360717773,
        -9.4485645294189453,
        -10.868650436401367
      ],
      "type": "VEC3"
    },
    {
      "bufferView": 2,
      "byteOffset": 786384,
      "componentType": 5126,
      "count": 65532,
      "max": [
        0.99597090482711792,
        0.99997413158416748,
        0.99998664855957031
      ],
      "min": [
        -0.99998897314071655,
        -0.99999749660491943,
        -0.99999111890792847
      ],
      "type": "VEC3"
    },
    {
      "bufferView": 3,
      "componentType": 5126,
      "count": 65532,
      "max": [
        0.98663502931594849,
        0.99216806888580322,
        0.99975329637527466,
        1
      ],
      "min": [
        -0.98787146806716919,
        -0.98915410041809082,
        -0.85973304510116577,
        1
      ],
      "type": "VEC4"
    },
    {
      "bufferView": 1,
      "componentType": 5126,
      "count": 65532,
      "max": [
        0.99812400341033936,
        0.9284369945526123
      ],
      "min": [
        0.00048799999058246613,
        0.00048799999058246613
      ],
      "type": "VEC2"
    },
    {
      "bufferView": 0,
      "componentType": 5125,
      "count": 361047,
      "max": [
        65531
      ],
      "min": [
        0
      ],
      "type": "SCALAR"
    },
    {
      "bufferView": 2,
      "byteOffset": 1572768,
      "componentType": 5126,
      "count": 65532,
      "max": [
        10.907957077026367,
        9.4485645294189453,
        9.8434762954711914
      ],
      "min": [
        -10.907401084899902,
        -9.4485645294189453,
        -7.9256930351257324
      ],
      "type": "VEC3"
    },
    {
      "bufferView": 2,
      "byteOffset": 2359152,
      "componentType": 5126,
      "count": 65532,
      "max": [
        0.99997466802597046,
        0.99999886751174927,
        0.99997061491012573
      ],
      "min": [
        -0.9999854564666748,
        -0.99999964237213135,
        -0.98933976888656616
      ],
      "type": "VEC3"
    },
    {
      "bufferView": 3,
      "byteOffset": 1048512,
      "componentType": 5126,
      "count": 65532,
      "max": [
        0.99510353803634644,
        0.98663133382797241,
        0.99999302625656128,
        1
      ],
      "min": [
        -0.99996650218963623,
        -0.97709643840789795,
        -0.7540816068649292,
        1
      ],
      "type": "VEC4"
    },
    {
      "bufferView": 1,
      "byteOffset": 524256,
      "componentType": 5126,
      "count": 65532,
      "max": [
        0.99643498659133911,
        0.98615998029708862
      ],
      "min": [
        0.00048799999058246613,
        0.00048799999058246613
      ],
      "type": "VEC2"
    },
    {
      "bufferView": 0,
      "byteOffset": 1444188,
      "componentType": 5125,
      "count": 330030,
      "max": [
        65531
      ],
      "min": [
        0
      ],
      "type": "SCALAR"
    },
    {
      "bufferView": 2,
      "byteOffset": 3145536,
      "componentType": 5126,
      "count": 65532,
      "max": [
        10.907074928283691,
        9.4477043151855469,
        8.5461959838867188
      ],
      "min": [
        -10.896039962768555,
        -9.3344039916992188,
        -3.271151065826416
      ],
      "type": "VEC3"
    },
    {
      "bufferView": 2,
      "byteOffset": 3931920,
      "componentType": 5126,
      "count": 65532,
      "max": [
        0.99997711181640625,
        0.99999988079071045,
        0.99853289127349854
      ],
      "min": [
        -0.99998897314071655,
        -0.9999997615814209,
        -0.99990326166152954
      ],
      "type": "VEC3"
    },
    {
      "bufferView": 3,
      "byteOffset": 2097024,
      "componentType": 5126,
      "count": 65532,
      "max": [
        0.99559605121612549,
        0.98719924688339233,
        0.99999129772186279,
        1
      ],
      "min": [
        -0.99848222732543945,
        -0.96773374080657959,
        -0.99379843473434448,
        -1
      ],
      "type": "VEC4"
    },
    {
      "bufferView": 1,
      "byteOffset": 1048512,
      "componentType": 5126,
      "count": 65532,
      "max": [
        0.99818402528762817,
        0.99951201677322388
      ],
      "min": [
        0.00048799999058246613,
        0.00048799999058246613
      ],
      "type": "VEC2"
    },
    {
      "bufferView": 0,
      "byteOffset": 2764308,
      "componentType": 5125,
      "count": 324675,
      "max": [
        65531
      ],
      "min": [
        0
      ],
      "type": "SCALAR"
    },
    {
      "bufferView": 2,
      "byteOffset": 4718304,
      "componentType": 5126,
      "count": 54833,
      "max": [
        10.543096542358398,
        9.4471616744995117,
        10.864832878112793
      ],
      "min": [
        -10.741499900817871,
        -9.2861042022705078,
        -9.3429346084594727
      ],
      "type": "VEC3"
    },
    {
      "bufferView": 2,
      "byteOffset": 5376300,
      "componentType": 5126,
      "count": 54833,
      "max": [
        0.99991744756698608,
        0.99999535083770752,
        0.99996376037597656
      ],
      "min": [
        -0.99874550104141235,
        -0.99999690055847168,
        -0.99997949600219727
      ],
      "type": "VEC3"
    },
    {
      "bufferView": 3,
      "byteOffset": 3145536,
      "componentType": 5126,
      "count": 54833,
      "max": [
        0.99559605121612549,
        0.99538874626159668,
        0.99914902448654175,
        1
      ],
      "min": [
        -0.99806404113769531,
        -0.96755725145339966,
        -0.96490174531936646,
        -1
      ],
      "type": "VEC4"
    },
    {
      "bufferView": 1,
      "byteOffset": 1572768,
      "componentType": 5126,
      "count": 54833,
      "max": [
        0.99951201677322388,
        0.99909502267837524
      ],
      "min": [
        0.00048799999058246613,
        0.00048799999058246613
      ],
      "type": "VEC2"
    },
    {
      "bufferView": 0,
      "byteOffset": 4063008,
      "componentType": 5125,
      "count": 277560,
      "max": [
        54832
      ],
      "min": [
        0
      ],
      "type": "SCALAR"
    }
  ],
  "asset": {
    "extras": {
      "author": "Spogna (https://sketchfab.com/spogna)",
      "license": "CC-BY-NC-4.0 (http://creativecommons.org/licenses/by-nc/4.0/)",
      "source": "https://sketchfab.com/3d-models/vase-rawscan-98a29620a45e47ccb80a75d5416c8255",
      "title": "Vase  .::RAWscan::."
    },
    "generator": "Sketchfab-7.13.0",
    "version": "2.0"
  },
  "bufferViews": [
    {
      "buffer": 0,
      "byteLength": 5173248,
      "byteOffset": 0,
      "name": "floatBufferViews",
      "target": 34963
    },
    {
      "buffer": 0,
      "byteLength": 2011432,
      "byteOffset": 5173248,
      "byteStride": 8,
      "name": "floatBufferViews",
      "target": 34962
    },
    {
      "buffer": 0,
      "byteLength": 6034296,
      "byteOffset": 7184680,
      "byteStride": 12,
      "name": "floatBufferViews",
      "target": 34962
    },
    {
      "buffer": 0,
      "byteLength": 4022864,
      "byteOffset": 13218976,
      "byteStride": 16,
      "name": "floatBufferViews",
      "target": 34962
    }
  ],
  "buffers": [
    {
      "byteLength": 17241840,
      "uri": "scene.bin"
    }
  ],
  "images": [
    {
      "uri": "textures/vaso_baseColor.jpeg"
    },
    {
      "uri": "textures/vaso_metallicRoughness.png"
    }
  ],
  "materials": [
    {
      "doubleSided": true,
      "name": "vaso",
      "occlusionTexture": {
        "index": 1,
        "strength": 0.69512195121951215,
        "texCoord": 0
      },
      "pbrMetallicRoughness": {
        "baseColorFactor": [
          1,
          1,
          1,
          1
        ],
        "baseColorTexture": {
          "index": 0,
          "texCoord": 0
        },
        "metallicFactor": 0,
        "metallicRoughnessTexture": {
          "index": 1,
          "texCoord": 0
        },
        "roughnessFactor": 0
      }
    }
  ],
  "meshes": [
    {
      "primitives": [
        {
          "attributes": {
            "NORMAL": 1,
            "POSITION": 0,
            "TANGENT": 2,
            "TEXCOORD_0": 3
          },
          "indices": 4,
          "material": 0,
          "mode": 4
        }
      ]
    },
    {
      "primitives": [
        {
          "attributes": {
            "NORMAL": 6,
            "POSITION": 5,
            "TANGENT": 7,
            "TEXCOORD_0": 8
          },
          "indices": 9,
          "material": 0,
          "mode": 4
        }
      ]
    },
    {
      "primitives": [
        {
          "attributes": {
            "NORMAL": 11,
            "POSITION": 10,
            "TANGENT": 12,
            "TEXCOORD_0": 13
          },
          "indices": 14,
          "material": 0,
          "mode": 4
        }
      ]
    },
    {
      "primitives": [
        {
          "attributes": {
            "NORMAL": 16,
            "POSITION": 15,
            "TANGENT": 17,
            "TEXCOORD_0": 18
          },
          "indices": 19,
          "material": 0,
          "mode": 4
        }
      ]
    }
  ],
  "nodes": [
    {
      "children": [
        1
      ],
      "name": "RootNode (gltf orientation matrix)",
      "rotation": [
        -0.70710678118654746,
        -0,
        -0,
        0.70710678118654757
      ]
    },
    {
      "children": [
        2
      ],
      "matrix": [
        1,
        0,
        0,
        0,
        0,
        2.2204460492503131e-16,
        -1,
        0,
        0,
        1,
        2.2204460492503131e-16,
        0,
        0,
        0.0019412040710449219,
        -0.0019593238830566406,
        1
      ],
      "name": "RootNode (model correction matrix)"
    },
    {
      "children": [
        3,
        4,
        5,
        6
      ],
      "name": "vaso.obj.cleaner.materialmerger.gles"
    },
    {
      "mesh": 0,
      "name": ""
    },
    {
      "mesh": 1,
      "name": ""
    },
    {
      "mesh": 2,
      "name": ""
    },
    {
      "mesh": 3,
      "name": ""
    }
  ],
  "samplers": [
    {
      "magFilter": 9729,
      "minFilter": 9987,
      "wrapS": 10497,
      "wrapT": 10497
    }
  ],
  "scene": 0,
  "scenes": [
    {
      "name": "OSG_Scene",
      "nodes": [
        0
      ]
    }
  ],
  "textures": [
    {
      "sampler": 0,
      "source": 0
    },
    {
      "sampler": 0,
      "source": 1
    }
  ]
}

